<?xml version="1.0" standalone="no"?>
<!DOCTYPE svg PUBLIC "-//W3C//DTD SVG 20010904//EN"
 "http://www.w3.org/TR/2001/REC-SVG-20010904/DTD/svg10.dtd">
<svg version="1.0" xmlns="http://www.w3.org/2000/svg"
 width="200.000000pt" height="300.000000pt" viewBox="0 0 200.000000 300.000000"
 preserveAspectRatio="xMidYMid meet">

<g transform="translate(0.000000,300.000000) scale(0.100000,-0.100000)"
fill="#000000" stroke="none">
<path d="M0 2942 l0 -58 41 4 41 4 -7 -51 c-4 -28 -5 -51 -2 -51 3 0 19 23 36
50 29 47 33 50 72 50 47 0 47 19 2 -172 -24 -103 -25 -107 -55 -113 -43 -10
-53 5 -40 57 6 23 9 44 7 46 -2 2 -18 -18 -35 -46 -17 -28 -37 -53 -45 -56
-12 -4 -15 -27 -15 -112 l0 -107 52 8 c29 4 65 7 81 6 36 -2 66 -28 60 -52 -7
-25 -11 -24 -40 7 -25 28 -59 28 -57 1 1 -9 5 -33 9 -53 l6 -36 -33 7 c-18 4
-35 11 -36 16 -2 5 -12 9 -23 9 -18 0 -19 -11 -19 -306 l0 -305 43 26 c59 37
156 81 197 90 19 4 58 18 85 30 28 12 77 25 110 28 33 4 94 11 135 16 41 6
125 10 186 11 l112 0 6 -26 7 -26 22 33 c38 55 46 49 40 -33 -5 -70 -4 -75 27
-115 17 -24 37 -43 44 -43 7 0 17 -5 24 -12 9 -9 5 -17 -15 -34 -21 -18 -30
-20 -49 -12 -13 6 -30 21 -38 33 -8 12 -24 25 -35 28 -17 4 -22 -1 -27 -29 -3
-19 -3 -55 1 -82 6 -44 5 -46 -9 -27 -19 25 -21 136 -2 223 7 34 10 64 8 67
-9 9 -61 5 -66 -4 -4 -5 -22 -5 -46 0 -28 6 -46 6 -59 -3 -15 -9 -25 -9 -46 0
-21 10 -39 9 -88 -2 -34 -8 -70 -18 -79 -21 -13 -5 -15 -2 -11 13 3 14 -2 21
-20 26 -26 6 -57 -1 -57 -13 0 -3 6 -17 13 -31 23 -43 27 -72 12 -86 -16 -16
-55 -19 -55 -4 0 22 -32 8 -70 -30 -46 -46 -50 -48 -43 -20 4 15 0 20 -15 20
-12 0 -24 -4 -27 -10 -3 -5 -26 -10 -50 -10 -24 0 -47 -5 -50 -11 -4 -5 -31
-21 -61 -35 l-54 -25 0 -569 0 -570 28 -2 c56 -3 108 4 123 18 13 12 42 14
132 13 98 -2 117 0 132 15 10 10 43 36 74 58 31 23 67 51 81 63 14 12 59 33
100 46 41 13 79 29 83 36 4 7 20 13 35 13 21 0 30 7 41 31 9 21 17 27 24 20 7
-7 3 -24 -11 -53 -24 -51 -42 -68 -102 -93 -25 -10 -52 -25 -61 -32 -9 -7 -18
-11 -20 -9 -2 3 -14 -3 -27 -12 l-22 -17 67 -49 c75 -55 196 -106 249 -106 19
0 34 -4 34 -9 0 -12 -57 -20 -68 -9 -14 14 -393 -3 -399 -18 -3 -9 -13 -7 -39
8 -28 17 -46 20 -89 15 -29 -3 -65 -13 -79 -22 -22 -15 -26 -15 -26 -3 0 11
-16 17 -52 22 -71 8 -181 7 -194 -2 -6 -4 -11 -34 -12 -67 l0 -60 12 50 12 50
107 3 c82 2 107 0 107 -10 0 -7 -13 -67 -29 -133 l-28 -120 -46 -3 c-55 -4
-54 -6 -27 98 22 83 25 120 10 120 -5 0 -12 -12 -16 -27 -3 -16 -12 -53 -19
-83 -7 -30 -16 -67 -19 -82 -5 -21 -13 -28 -39 -31 -17 -2 12 -5 66 -5 91 -2
99 0 104 18 5 20 23 28 23 10 0 -22 63 -42 117 -38 68 6 103 32 123 89 10 27
23 45 34 47 16 3 17 0 10 -30 -5 -18 -8 -49 -9 -68 l0 -35 55 0 55 0 12 40 c6
22 14 52 17 68 5 19 13 27 27 27 18 0 20 -4 13 -33 -5 -17 -8 -48 -9 -67 l0
-35 91 4 c107 4 137 -7 128 -44 l-6 -25 101 0 c95 0 101 1 101 21 0 11 5 17
10 14 6 -4 25 1 43 10 31 16 137 22 158 9 19 -11 122 -14 135 -3 7 6 55 10
111 10 55 0 103 5 110 11 9 7 25 7 56 0 23 -6 76 -13 117 -17 41 -3 99 -8 128
-12 48 -5 52 -4 52 16 0 14 -6 21 -20 21 -24 0 -24 -9 0 92 27 111 26 128 -4
128 -19 0 -22 4 -18 25 3 16 11 25 23 25 18 0 19 12 19 266 0 236 -2 265 -15
254 -8 -7 -15 -18 -15 -26 0 -7 -6 -17 -13 -21 -7 -4 -19 -23 -26 -40 -8 -18
-20 -33 -27 -33 -8 0 -15 -6 -15 -12 -1 -7 -4 1 -8 17 -4 22 -13 31 -30 33
-20 3 -23 0 -18 -17 4 -17 1 -21 -18 -21 -41 0 -125 125 -125 185 0 14 5 25
10 25 6 0 10 8 10 18 0 27 42 62 73 62 15 0 41 -13 62 -31 19 -17 35 -26 35
-19 0 9 10 11 30 7 16 -4 44 -4 60 0 l30 6 0 78 c0 75 -1 79 -22 80 l-23 0 23
9 c16 7 22 18 22 40 0 16 -4 30 -10 30 -5 0 -10 7 -10 15 0 16 -76 95 -91 95
-36 0 -115 99 -125 157 -3 14 -12 40 -22 57 l-17 31 -3 -27 c-2 -16 -8 -28
-13 -28 -11 0 -11 -2 0 36 6 21 5 36 -5 49 -8 10 -14 28 -14 39 1 20 2 19 23
-5 12 -14 51 -46 87 -71 36 -25 74 -56 85 -68 11 -12 42 -40 68 -62 l48 -40
-1 651 c-1 599 -6 712 -26 624 -20 -91 -18 -88 -55 -90 -62 -5 -63 0 -29 148
16 73 30 135 30 136 0 2 18 3 40 3 l40 0 0 55 0 55 -1000 0 -1000 0 0 -58z
m1852 -69 c18 -16 23 -57 12 -87 -4 -12 -20 -16 -54 -16 l-48 0 8 35 c8 36 2
49 -17 37 -16 -10 -53 -181 -42 -188 15 -9 26 4 32 36 6 29 9 30 56 30 l50 0
-9 -31 c-11 -39 -26 -56 -61 -75 -37 -19 -119 -18 -147 2 -27 19 -28 44 -3
149 27 110 65 140 166 128 22 -2 47 -11 57 -20z m-1505 -33 c-9 -47 -5 -72 9
-58 3 4 11 28 18 55 l12 48 47 3 c57 4 56 11 14 -158 l-32 -125 -40 -1 c-22
-1 -43 0 -46 2 -4 2 -1 28 6 59 7 30 9 57 5 60 -11 7 -26 -20 -35 -65 -4 -19
-12 -41 -17 -47 -12 -15 -74 -17 -83 -4 -4 8 15 110 50 259 5 19 12 22 54 22
l48 0 -10 -50z m453 38 c0 -26 -17 -37 -60 -40 -37 -2 -45 -6 -45 -23 0 -16 8
-21 47 -25 26 -3 50 -9 54 -12 14 -14 -8 -119 -29 -144 -21 -24 -30 -26 -116
-28 -64 -2 -94 1 -97 9 -3 7 9 71 26 143 l32 132 94 0 c69 0 94 -3 94 -12z
m300 8 c0 -11 -62 -271 -66 -278 -7 -10 -81 -10 -88 0 -2 4 6 52 20 107 28
119 28 115 10 115 -9 0 -20 -30 -32 -87 -23 -107 -42 -130 -106 -137 -44 -4
-48 -2 -48 18 0 11 9 27 19 33 13 8 26 40 41 105 11 51 23 101 26 111 5 15 19
17 115 17 60 0 109 -2 109 -4z m120 -14 c0 -9 -4 -33 -10 -51 -5 -19 -8 -36
-6 -39 3 -2 20 21 40 52 34 53 38 56 77 56 38 0 41 -2 35 -22 -3 -13 -17 -75
-32 -140 l-27 -116 -36 -5 c-20 -2 -38 -3 -40 -1 -2 2 1 25 6 51 6 27 10 49 9
51 -2 1 -19 -22 -39 -51 -33 -51 -38 -54 -74 -53 -21 1 -38 6 -37 11 1 6 14
70 29 143 l29 132 38 0 c30 0 38 -4 38 -18z m266 -23 c-4 -22 -7 -45 -9 -51
-1 -6 3 -12 10 -15 7 -3 16 13 23 39 6 24 13 49 15 56 4 11 95 19 95 8 0 -19
-63 -273 -69 -279 -5 -5 -26 -7 -47 -5 -43 3 -41 -2 -27 88 6 40 5 44 -9 32
-9 -7 -19 -33 -22 -57 -4 -25 -13 -48 -19 -52 -20 -13 -87 -9 -87 5 0 7 11 61
25 120 14 59 27 117 30 130 5 19 12 22 51 22 l47 0 -7 -41z m-966 -23 c0 -23
-34 -76 -42 -66 -3 3 -1 24 4 48 10 46 38 60 38 18z m805 -222 c0 -32 -3 -37
-27 -40 -14 -1 -40 -10 -56 -18 -38 -20 -42 -20 -42 -1 0 18 43 47 67 45 34
-4 43 0 43 18 0 15 8 32 14 32 1 0 1 -16 1 -36z m-1240 -24 c19 -8 19 -9 -2
-9 -12 -1 -25 4 -28 9 -7 12 2 12 30 0z m2 -52 c-3 -7 -5 -2 -5 12 0 14 2 19
5 13 2 -7 2 -19 0 -25z m1019 -74 c-4 -12 -1 -14 14 -9 22 7 55 -18 45 -35 -3
-5 -24 -10 -46 -10 -38 0 -79 -26 -79 -50 0 -6 -5 -19 -12 -29 -11 -18 -8 -32
13 -62 9 -12 6 -24 -15 -57 -33 -53 -35 -92 -3 -93 22 0 22 0 -2 -10 -32 -13
-36 -5 -36 80 0 39 -3 71 -7 71 -13 0 -9 18 14 68 34 73 137 197 114 136z
m-633 -41 c-7 -2 -21 -2 -30 0 -10 3 -4 5 12 5 17 0 24 -2 18 -5z m1052 -13
c-3 -5 -15 -10 -26 -10 -11 0 -17 5 -14 10 3 6 15 10 26 10 11 0 17 -4 14 -10z
m-1095 -94 c-1 -31 -14 -54 -35 -58 -18 -4 -21 -1 -17 14 2 10 -3 27 -13 38
-16 17 -16 19 7 22 32 5 58 -2 58 -16z m740 -220 c0 3 7 1 15 -6 23 -19 8 -30
-40 -30 -51 0 -64 13 -34 34 16 11 27 12 41 5 10 -5 18 -7 18 -3z m-895 -6 c3
-5 -1 -10 -9 -10 -9 0 -16 5 -16 10 0 6 4 10 9 10 6 0 13 -4 16 -10z m75 -20
c11 -7 7 -10 -17 -10 -17 0 -35 5 -38 10 -8 13 35 13 55 0z m480 0 c-20 -13
-77 -13 -85 0 -4 6 14 10 47 10 38 0 49 -3 38 -10z m-364 -71 c10 -17 -13 -36
-27 -22 -12 12 -4 33 11 33 5 0 12 -5 16 -11z m614 -109 c0 -5 -2 -10 -4 -10
-3 0 -8 5 -11 10 -3 6 -1 10 4 10 6 0 11 -4 11 -10z m20 -83 c33 -9 56 -24 48
-32 -11 -12 -82 16 -110 43 -39 36 -35 50 5 20 17 -14 43 -28 57 -31z m658 7
c-10 -10 -27 -14 -49 -12 -35 4 -28 11 24 22 18 4 25 11 21 19 -5 9 -3 9 7 -1
11 -10 11 -15 -3 -28z m-943 -173 c-11 -10 -36 32 -29 49 3 8 7 20 9 25 18 59
20 59 23 -4 2 -35 0 -66 -3 -70z m113 -36 c26 -41 28 -55 6 -55 -23 0 -43 29
-44 63 0 36 10 34 38 -8z m732 -4 c0 -11 -4 -23 -10 -26 -6 -4 -10 5 -10 19 0
14 5 26 10 26 6 0 10 -9 10 -19z m-715 -71 c3 -5 1 -10 -4 -10 -6 0 -11 5 -11
10 0 6 2 10 4 10 3 0 8 -4 11 -10z m881 -207 c15 -43 18 -73 7 -73 -5 0 -20
37 -35 83 -24 76 -25 80 -6 55 12 -15 27 -44 34 -65z m144 -103 c0 -4 -10 -6
-22 -5 -33 4 -34 4 -19 14 15 10 41 4 41 -9z m-650 -39 c3 -5 12 -9 20 -10 49
-4 91 -14 96 -22 3 -5 14 -9 25 -9 10 0 19 -7 19 -15 0 -18 -75 -22 -85 -5 -7
11 -74 44 -112 55 -34 9 -29 29 4 20 15 -3 30 -10 33 -14z m-200 -126 c0 -8 9
-15 20 -15 23 0 96 -35 118 -56 7 -8 24 -14 36 -14 31 0 61 -33 49 -55 -6 -10
-5 -35 1 -65 11 -53 38 -75 81 -64 19 5 35 -3 69 -33 25 -21 45 -45 46 -54 0
-9 9 -19 21 -22 21 -6 21 -6 -6 -41 -15 -20 -32 -33 -38 -29 -6 4 -8 -2 -5
-15 5 -17 1 -23 -18 -28 -26 -7 -30 -14 -14 -30 13 -13 3 -44 -14 -44 -7 0
-17 5 -22 10 -8 8 -15 6 -24 -5 -7 -8 -21 -15 -32 -15 -26 0 -94 36 -101 53
-3 8 -19 17 -36 20 -31 7 -44 27 -16 27 8 0 15 5 15 10 0 6 -9 10 -20 10 -12
0 -20 7 -21 18 -1 16 -2 16 -6 0 -2 -10 -12 -18 -21 -17 -11 0 -12 2 -4 6 17
7 15 43 -3 43 -8 0 -15 9 -15 19 0 15 -9 20 -46 23 -32 2 -48 -1 -54 -11 -13
-25 -44 33 -31 58 15 27 14 31 -9 31 -13 0 -20 7 -20 20 0 16 -7 20 -30 20
-16 0 -30 5 -30 10 0 6 -6 10 -13 10 -9 0 -12 10 -9 30 4 27 8 30 43 30 32 0
39 -3 39 -20 0 -18 7 -20 60 -20 53 0 60 2 60 20 0 11 -4 20 -9 20 -5 0 -12
18 -16 40 -4 22 -12 40 -19 40 -16 0 -36 43 -36 75 0 22 4 25 40 25 29 0 40
-4 40 -15z m-200 -85 c0 -33 -3 -40 -20 -40 -16 0 -20 -7 -20 -34 0 -25 -5
-35 -20 -39 -17 -4 -20 0 -20 34 0 32 -3 39 -20 39 -13 0 -20 7 -20 20 0 17 7
20 40 20 33 0 40 3 40 20 0 13 7 20 20 20 17 0 20 -7 20 -40z m973 -252 c-6
-7 -16 -34 -23 -60 -7 -27 -15 -48 -19 -48 -3 0 -7 25 -8 54 -2 57 -3 56 51
65 5 0 4 -5 -1 -11z m-770 -150 c23 -12 48 -23 55 -24 7 -1 20 -8 28 -14 24
-21 148 -80 167 -80 9 0 26 -9 36 -19 12 -12 27 -17 40 -14 17 4 21 1 21 -20
0 -14 -4 -28 -9 -32 -10 -6 -89 10 -126 25 -11 4 -36 14 -55 21 -70 25 -140
60 -140 69 0 5 5 12 10 15 6 3 10 13 10 22 0 13 -5 12 -24 -6 l-25 -23 -27 21
c-15 11 -41 21 -58 21 -30 0 -66 15 -56 23 9 7 85 35 98 36 7 1 32 -9 55 -21z
m-668 -220 c25 -22 26 -25 15 -78 -32 -155 -53 -180 -154 -180 -74 0 -90 17
-83 84 3 28 14 76 24 106 15 45 25 58 53 72 50 25 113 23 145 -4z m1453 6 c27
-18 28 -50 6 -142 -23 -94 -53 -122 -134 -122 -75 0 -103 21 -94 72 24 131 46
181 89 199 34 13 109 10 133 -7z m-1200 -16 c-2 -16 -12 -24 -33 -28 -28 -5
-30 -9 -55 -110 l-25 -105 -42 -3 c-51 -4 -51 -5 -23 122 11 50 20 91 20 93 0
2 -11 3 -25 3 -18 0 -25 5 -25 18 0 10 3 22 7 25 3 4 51 7 105 7 97 0 99 0 96
-22z m178 6 c-3 -9 -6 -19 -6 -24 0 -5 -15 -10 -32 -12 -25 -2 -34 -8 -36 -25
-2 -14 2 -23 10 -23 23 0 39 -16 32 -33 -3 -10 -17 -17 -30 -17 -17 0 -27 -8
-34 -26 -14 -35 -14 -34 21 -34 27 0 30 -3 27 -27 -3 -28 -4 -28 -80 -31 -93
-3 -89 -13 -53 146 14 61 25 113 25 116 0 3 36 6 81 6 70 0 80 -2 75 -16z
m218 1 c15 -16 14 -51 -5 -103 -10 -25 -45 -42 -89 -42 -26 0 -29 -4 -41 -55
l-12 -55 -44 0 c-52 0 -52 -4 -16 153 l27 117 83 0 c60 0 86 -4 97 -15z m256
6 c0 -10 -47 -213 -56 -243 -4 -14 -16 -18 -51 -18 -42 0 -45 2 -40 23 18 73
19 99 6 95 -7 -2 -20 -30 -27 -61 l-14 -57 -39 0 c-34 0 -39 3 -39 23 0 39 20
96 37 106 14 7 15 12 5 24 -18 21 -4 74 26 97 20 16 40 20 108 20 46 0 84 -4
84 -9z m330 -3 c0 -7 -13 -67 -28 -133 l-28 -120 -47 -3 c-45 -3 -47 -2 -42
20 44 192 45 198 24 198 -4 0 -15 -33 -24 -72 -35 -156 -30 -148 -80 -148 -25
0 -45 4 -45 10 0 10 48 224 55 248 3 8 34 12 110 12 77 0 105 -3 105 -12z
m-802 -75 c0 -24 -2 -25 -13 -10 -7 10 -19 15 -29 11 -9 -3 -16 -1 -16 4 0 6
12 13 28 15 15 2 28 5 28 6 1 0 2 -11 2 -26z m-367 -5 c-12 -32 -31 -34 -31
-4 0 19 5 26 20 26 16 0 18 -4 11 -22z m172 3 c-4 -18 -31 -36 -39 -28 -10 9
11 47 26 47 13 0 17 -6 13 -19z m437 -35 c0 -3 -4 -8 -10 -11 -5 -3 -10 -1
-10 4 0 6 5 11 10 11 6 0 10 -2 10 -4z m-262 -57 c-2 -6 -7 -10 -11 -10 -4 1
-16 1 -28 1 -11 0 -17 5 -14 10 8 14 58 13 53 -1z m222 -4 c0 -11 -11 -15 -40
-15 -22 0 -42 0 -45 0 -3 0 -5 3 -5 8 -1 6 38 17 78 21 6 0 12 -6 12 -14z m-6
-44 c-5 -5 -30 -11 -57 -13 -63 -4 -56 15 9 22 54 6 62 4 48 -9z m323 -4 c1
-2 0 -13 -4 -25 -4 -19 -10 -21 -42 -16 -44 7 -44 8 -37 32 5 15 14 18 43 15
21 -2 38 -5 40 -6z m-329 -59 c-6 -18 -25 -21 -25 -3 0 8 7 15 15 15 7 0 12
-5 10 -12z"/>
<path d="M666 2709 c-3 -17 -6 -39 -6 -47 0 -28 29 9 36 46 5 25 3 32 -8 32
-9 0 -18 -13 -22 -31z"/>
<path d="M1225 710 c3 -5 8 -10 11 -10 2 0 4 5 4 10 0 6 -5 10 -11 10 -5 0 -7
-4 -4 -10z"/>
<path d="M1435 700 c-3 -5 1 -10 9 -10 9 0 16 5 16 10 0 6 -4 10 -9 10 -6 0
-13 -4 -16 -10z"/>
<path d="M1440 656 c0 -9 5 -16 10 -16 6 0 10 4 10 9 0 6 -4 13 -10 16 -5 3
-10 -1 -10 -9z"/>
<path d="M1353 643 c-7 -3 -13 -11 -13 -18 0 -8 -10 -17 -22 -21 -19 -6 -15
-9 29 -30 28 -14 57 -22 66 -18 17 6 29 62 15 70 -17 11 -63 21 -75 17z m45
-41 c2 -7 -6 -12 -17 -12 -21 0 -27 11 -14 24 9 9 26 2 31 -12z"/>
<path d="M364 309 c-14 -18 -48 -178 -40 -187 12 -11 23 13 41 84 18 79 18
128 -1 103z"/>
<path d="M1811 288 c-29 -94 -38 -188 -15 -165 8 8 44 155 44 180 0 29 -18 19
-29 -15z"/>
<path d="M1002 278 c-11 -39 -5 -53 14 -37 16 13 19 69 4 69 -5 0 -13 -15 -18
-32z"/>
<path d="M1230 291 c-14 -27 -13 -41 5 -41 8 0 15 6 15 14 0 8 3 21 6 30 9 23
-13 20 -26 -3z"/>
<path d="M501 254 c0 -11 3 -14 6 -6 3 7 2 16 -1 19 -3 4 -6 -2 -5 -13z"/>
<path d="M375 1810 c4 -6 11 -8 16 -5 14 9 11 15 -7 15 -8 0 -12 -5 -9 -10z"/>
<path d="M1856 1412 c-3 -5 3 -21 15 -33 l20 -24 -7 25 c-8 31 -20 45 -28 32z"/>
<path d="M1543 33 c-40 -8 -25 -21 30 -25 61 -5 69 -2 43 18 -20 14 -31 15
-73 7z"/>
<path d="M1130 10 c-11 -7 -7 -10 18 -10 20 0 31 4 27 10 -8 13 -26 13 -45 0z"/>
<path d="M1648 3 c7 -3 16 -2 19 1 4 3 -2 6 -13 5 -11 0 -14 -3 -6 -6z"/>
<path d="M1713 3 c20 -2 54 -2 75 0 20 2 3 4 -38 4 -41 0 -58 -2 -37 -4z"/>
</g>
</svg>
